<?xml version="1.0" encoding="iso-8859-1"?>
<!-- Uploaded to: SVG Repo, www.svgrepo.com, Generator: SVG Repo Mixer Tools -->
<!DOCTYPE svg PUBLIC "-//W3C//DTD SVG 1.1//EN" "http://www.w3.org/Graphics/SVG/1.1/DTD/svg11.dtd">
<svg fill="white" version="1.1" id="Capa_1" xmlns="http://www.w3.org/2000/svg" xmlns:xlink="http://www.w3.org/1999/xlink"
	 width="800px" height="800px" viewBox="0 0 490.679 490.68"
	 xml:space="preserve">
	<g>
		<path d="M470.707,15.006c-25.039,36.155-66.468,61.377-66.468,61.377c3.366,11.349-0.353,20.707-4.199,26.682l-68.363,80.497
			c-6.171,3.841-49.379,29.022-34.636-28.048c15.854-61.408,17.993-40.195-0.674-69.848c0,0-31.578,39.379-39.061,79.768
			c-7.474,40.383-28.38,48.973-28.38,48.973s47.921,32.02-56.256,61.919C68.491,306.233,5.789,368.461,5.789,368.461
			s-9.514,16.759-4.147,34.973c0,0,134.882-60.18,197.885-39.529c62.994,20.654,25.711,42.258,25.711,42.258
			s27.629,45.524,30.727,82.598c0,0-2.521,7.807,23.315-9.382c25.835-17.188,27.274-49.832,31.622-95.324
			c4.356-45.492,1.11-67.573,41.396-85.05c40.291-17.48,48.102-22.946,66.86-36.768c0,0-7.245-10.091-23.352-11.089
			c0,0-64.183,30.244-50.813-32.102l83.45-98.272c8.103-2.486,13.417,1.737,13.417,1.737l48.818-94.998l-6.953-7.439
			C483.726,20.073,495.741-21.153,470.707,15.006z"/>
	</g>
</svg>
